<svg id="Layer_1" enable-background="new 0 0 511.106 511.106" height="512" viewBox="0 0 511.106 511.106" width="512" xmlns="http://www.w3.org/2000/svg"><g><path id="XMLID_2904_" d="m135.894 90.66v255c-16.333 0-118.559 0-135 0v60h135v105h30l15-210-15-210c-10.493 0-19.508 0-30 0z" fill="#72bbff"/><path id="XMLID_2915_" d="m374.246 243.233-21.213-21.213-15.91 15.91-15.91-15.91-21.213 21.213 15.91 15.91-15.91 15.91 21.213 21.213 15.91-15.91 15.91 15.91 21.213-21.213-15.91-15.91z" fill="#ff884d"/><path id="XMLID_2914_" d="m81.213 161.266-21.213-21.213-19.394 19.394-19.393-19.394-21.213 21.213 25.606 25.608v38.786h30v-38.786z" fill="#ffe278"/><path id="XMLID_2913_" d="m390.894 150.66h75v30h-75z" fill="#00dc7b"/><path id="XMLID_2882_" d="m390.894 90.66h75v30h-75z" fill="#00dc7b"/><path id="XMLID_2883_" d="m195.894 345.66v-255h-30v420h30v-105h228v-60z" fill="#8095ff"/><path id="XMLID_2873_" d="m405.894 480.872v-210.425l105.212 105.213z" fill="#00dc7b"/><path id="XMLID_2899_" d="m165.894 105.66 15-52.606-15-52.606c-7.048 7.047-98.043 98.041-105.214 105.212z" fill="#c6ea4b"/><path id="XMLID_2884_" d="m271.106 105.66-105.212-105.213v105.213z" fill="#00dc7b"/></g></svg>